<svg xmlns="http://www.w3.org/2000/svg" width="192.38" height="412.13" viewBox="0 0 192.38 412.13">
  <title>Asset 1ldpi</title>
  <g id="Layer_2" data-name="Layer 2">
    <g id="Layer_1-2" data-name="Layer 1">
      <g id="_020201ff" data-name="#020201ff">
        <path d="M63.4,21.22C79.5,5.92,102.3.72,123.9.12c22.8-.2,45.6-.1,68.4-.1.1,24.1.1,48.1,0,72.2H148.1c-9.3-.6-18.9,6.5-20.6,15.8-.2,16.1-.1,32.2-.1,48.3,21.6.1,43.2,0,64.8.1-1.6,23.3-4.5,46.5-7.9,69.5-19.1.2-38.2,0-57.3.1-.2,68.7.1,137.3-.1,206-28.4.1-56.7-.1-85.1.1-.5-68.7,0-137.4-.3-206.1-13.8-.1-27.7.1-41.5-.1.1-23.1,0-46.2,0-69.2,13.8-.2,27.7,0,41.5-.1.4-22.4-.4-44.9.4-67.3C43.4,51.43,50.1,33.53,63.4,21.22Z" style="fill: #fffdf1"/>
      </g>
    </g>
  </g>
</svg>
