<?xml version="1.0" encoding="utf-8"?>
<!-- Generator: Adobe Illustrator 20.1.0, SVG Export Plug-In . SVG Version: 6.00 Build 0)  -->
<svg version="1.1" id="Layer_1" xmlns="http://www.w3.org/2000/svg" xmlns:xlink="http://www.w3.org/1999/xlink" x="0px" y="0px"
	 viewBox="0 0 512 512" style="enable-background:new 0 0 512 512;" xml:space="preserve">
<style type="text/css">
	.st0{}
</style>
<text transform="matrix(1 0 0 1 168.7834 543.8093)" class="st1" style="font-family:'Verdana-Bold'; font-size:20px;">simpleicon.com</text>
<text transform="matrix(1 0 0 1 9.1934 567.8093)" class="st1" style="font-family:'Verdana'; font-size:20px;">Collection Of Flat Icon, Symbols And Glyph Icons</text>
<g id="_x23_020201ff">
	<path class="st2" d="M223.2,71.2c16.1-15.3,38.9-20.5,60.5-21.1c22.8-0.2,45.6-0.1,68.4-0.1c0.1,24.1,0.1,48.1,0,72.2
		c-14.7,0-29.5,0-44.2,0c-9.3-0.6-18.9,6.5-20.6,15.8c-0.2,16.1-0.1,32.2-0.1,48.3c21.6,0.1,43.2,0,64.8,0.1
		c-1.6,23.3-4.5,46.5-7.9,69.5c-19.1,0.2-38.2,0-57.3,0.1c-0.2,68.7,0.1,137.3-0.1,206c-28.4,0.1-56.7-0.1-85.1,0.1
		c-0.5-68.7,0-137.4-0.3-206.1c-13.8-0.1-27.7,0.1-41.5-0.1c0.1-23.1,0-46.2,0-69.2c13.8-0.2,27.7,0,41.5-0.1
		c0.4-22.4-0.4-44.9,0.4-67.3C203.2,101.4,209.9,83.5,223.2,71.2z"/>
</g>
</svg>
