<?xml version="1.0" encoding="utf-8"?>
<!-- Generator: Adobe Illustrator 20.1.0, SVG Export Plug-In . SVG Version: 6.00 Build 0)  -->
<svg version="1.1" id="Layer_1" xmlns="http://www.w3.org/2000/svg" xmlns:xlink="http://www.w3.org/1999/xlink" x="0px" y="0px"
	 viewBox="0 0 100 70" style="enable-background:new 0 0 100 70;" xml:space="preserve">
<style type="text/css">
	.st0{}
</style>
<g>
	<g>
		<path class="st0" d="M78.6,35.2c-0.4,16.3-13.3,29.9-29.9,29.9c-16.3,0-29.9-13.6-29.9-29.9c0-16.3,13.6-29.9,29.9-29.9
			C65.2,5.3,78.2,18.9,78.6,35.2c0,1.9,3,1.9,3,0C81.3,21.7,73.2,9.4,60.4,4.5c-13.1-5-28.3-0.9-37.1,9.9C14.6,25,13.4,40.3,20.4,52
			c7,11.7,20.8,18,34.2,15.6c15.7-2.8,26.6-16.7,27-32.3C81.6,33.3,78.6,33.3,78.6,35.2z"/>
	</g>
</g>
<g>
	<path class="st0" d="M26.9,47.2c0.4,0,0.9,0,1.4,0c0.5,0,1,0,1.7,0c0.8,0,1.4,0,1.9-0.1c0.5-0.1,0.9-0.3,1.2-0.6
		c0.3-0.3,0.5-0.8,0.7-1.4c0.1-0.6,0.2-1.4,0.2-2.5V17.9h5v24.6c0,1.7-0.2,3.1-0.5,4.2c-0.3,1.1-0.8,2-1.5,2.7
		c-0.7,0.7-1.6,1.1-2.7,1.4c-1.1,0.3-2.5,0.4-4.1,0.4c-1.2,0-2.1,0-2.7,0c-0.6,0-1,0-1.3-0.1L26.9,47.2z M39.9,14.3
		c0,1.1-0.2,1.9-0.7,2.4c-0.5,0.5-1.3,0.7-2.4,0.7s-1.9-0.2-2.4-0.7c-0.5-0.5-0.7-1.3-0.7-2.4c0-1.1,0.2-1.9,0.7-2.4
		c0.5-0.5,1.3-0.7,2.4-0.7s1.9,0.2,2.4,0.7C39.6,12.4,39.9,13.2,39.9,14.3z"/>
	<path class="st0" d="M50.8,19.2c2,0,3.8,0.2,5.2,0.6c1.4,0.4,2.6,1,3.5,1.9c0.9,0.9,1.6,2.2,2,3.7c0.4,1.6,0.6,3.5,0.6,5.9v2.2
		c0,2.1-0.2,3.9-0.5,5.4c-0.3,1.5-0.9,2.8-1.8,3.7c-0.8,1-2,1.7-3.5,2.2c-1.5,0.5-3.4,0.7-5.7,0.7c-1.5,0-2.8-0.2-3.8-0.6
		c-1-0.4-1.9-0.8-2.5-1.4v9.6h-5.1V31.1c0-2.3,0.2-4.2,0.6-5.7c0.4-1.5,1.1-2.7,2-3.6c0.9-0.9,2.1-1.6,3.6-1.9
		C47,19.4,48.8,19.2,50.8,19.2z M50.8,41.5c1.3,0,2.4-0.1,3.2-0.3c0.8-0.2,1.5-0.6,1.9-1.2c0.5-0.6,0.8-1.4,0.9-2.4
		c0.1-1,0.2-2.4,0.2-4.1v-2.2c0-1.8-0.1-3.2-0.2-4.2c-0.2-1-0.5-1.8-0.9-2.4c-0.5-0.6-1.1-0.9-1.9-1.1c-0.8-0.2-1.9-0.3-3.2-0.3
		c-1.3,0-2.3,0.1-3.2,0.3c-0.8,0.2-1.5,0.5-2,1.1c-0.5,0.5-0.8,1.3-1,2.3c-0.2,1-0.3,2.4-0.3,4.1v3.4c0,1.4,0.1,2.6,0.3,3.5
		c0.2,0.9,0.5,1.6,1,2.1s1.1,0.9,2,1.1C48.5,41.4,49.5,41.5,50.8,41.5z"/>
	<path class="st0" d="M61,58.2v-17c0-1.4,0.2-2.7,0.7-3.7c0.4-1,1.1-1.8,1.9-2.4s1.8-1.1,3-1.4c1.2-0.3,2.4-0.4,3.8-0.4
		c1.5,0,2.7,0,3.6,0c0.8,0,1.5,0,2.1,0l-0.9,4.2c0,0-0.2,0-0.5,0s-0.6,0-1.1,0c-0.4,0-0.9,0-1.3,0s-0.9,0-1.4,0
		c-1.1,0-2,0.1-2.6,0.3c-0.6,0.2-1.1,0.5-1.4,0.9c-0.3,0.4-0.5,0.9-0.6,1.5c-0.1,0.6-0.1,1.3-0.1,2.1v15.9H61z"/>
</g>
</svg>
